<svg xmlns="http://www.w3.org/2000/svg" xmlns:xlink="http://www.w3.org/1999/xlink" xml:lang="en" height="166.83999999999997pt" width="168.296pt" viewBox="-46.696 -139.2 168.296 166.83999999999997"><circle cx="0" cy="-54" r="18" style="stroke:black;fill:none;stroke-width:2.0;stroke-dasharray:-;" /><path d="M 0.0,-0.0 L 0,-36 L 0,-36 M 0,-72 L 0,-72 L 0,-108" style="stroke:black;fill:none;stroke-width:2.0;stroke-dasharray:-;stroke-linecap:round;stroke-linejoin:round;" /><path d="M 3.600000000000003,-45.0 L -3.6,-45" style="stroke:black;fill:none;stroke-width:2.0;stroke-dasharray:-;stroke-linecap:round;stroke-linejoin:round;" /><path d="M 3.637200993467639e-15,-59.4 L 0,-66.6" style="stroke:black;fill:none;stroke-width:2.0;stroke-dasharray:-;stroke-linecap:round;stroke-linejoin:round;" /><path d="M 3.600000000000004,-63.0 L -3.6,-63" style="stroke:black;fill:none;stroke-width:2.0;stroke-dasharray:-;stroke-linecap:round;stroke-linejoin:round;" /><path d="M 6.613092715395707e-15,-108.0 L 36,-108 L 39,-117 L 45,-99 L 51,-117 L 57,-99 L 63,-117 L 69,-99 L 72,-108 L 108,-108" style="stroke:black;fill:none;stroke-width:2.0;stroke-dasharray:-;stroke-linecap:round;stroke-linejoin:round;" /><path d="M 108.0,-108.0 L 108,-57.24 M 117,-57.24 L 99,-57.24 M 117,-50.76 L 99,-50.76 M 108,-50.76 L 108,-0" style="stroke:black;fill:none;stroke-width:2.0;stroke-dasharray:-;stroke-linecap:round;stroke-linejoin:round;" /><path d="M 107.99999999999999,-0.0 L 108,14.4 L 99,14.4 L 117,14.4 M 101.7,18.72 L 114.3,18.72 M 106.2,23.04 L 109.8,23.04" style="stroke:black;fill:none;stroke-width:2.0;stroke-dasharray:-;stroke-linecap:round;stroke-linejoin:round;" /><text x="-21.599999999999994" y="-68.0" dominant-baseline="central" fill="black" font-size="14.0" font-family="sans" text-anchor="end"><tspan x="-21.599999999999994" dy="14.0">Vin</tspan></text><text x="54.00000000000001" y="-134.60000000000002" dominant-baseline="ideographic" fill="black" font-size="14.0" font-family="sans" text-anchor="middle"><tspan x="54.00000000000001" dy="14.0">10kΩ</tspan></text><text x="95.39999999999999" y="-68.0" dominant-baseline="central" fill="black" font-size="14.0" font-family="sans" text-anchor="end"><tspan x="95.39999999999999" dy="14.0">100nF</tspan></text></svg>